<svg version="1.1" id="Layer_1" xmlns="http://www.w3.org/2000/svg" xmlns:xlink="http://www.w3.org/1999/xlink" x="0px" y="0px"
	 width="100%" viewBox="0 0 100 100" enable-background="new 0 0 100 100" xml:space="preserve">
<path fill="#000000" opacity="1.000000" stroke="none" 
	d="
M1.000000,40.000000 
	C1.000000,26.666670 1.000000,13.833341 1.000000,1.000006 
	C33.166653,1.000000 65.333519,1.051097 97.499603,0.915358 
	C100.483612,0.902766 101.098076,1.515962 101.084816,4.500334 
	C100.947044,35.499714 100.947060,66.500175 101.084785,97.499557 
	C101.098038,100.483620 100.484138,101.098076 97.499695,101.084808 
	C66.500313,100.947029 35.499851,100.947067 4.500476,101.084778 
	C1.516498,101.098038 0.886141,100.486626 0.913030,97.499313 
	C1.084032,78.500824 1.000000,59.500034 1.000000,40.000000 
z"/>
<path fill="#859F3C" opacity="1.000000" stroke="none" 
	d="
M43.568718,91.959686 
	C53.321407,92.311661 62.472473,92.269112 70.900177,87.157898 
	C84.115692,79.142990 91.520325,67.906166 92.073143,52.202515 
	C92.336838,44.711681 91.014275,37.797688 87.070297,31.437555 
	C85.767624,29.336828 86.109856,27.649755 88.142212,26.461821 
	C90.746574,24.939547 91.198822,27.401058 91.941216,28.865417 
	C106.054695,56.704338 91.986519,90.423233 60.229576,96.518082 
	C32.908932,101.761513 10.043384,85.950470 5.403271,59.667866 
	C0.530992,32.070221 16.430861,10.933212 41.922928,5.423593 
	C53.197258,2.986863 65.158302,4.371360 75.234154,11.258107 
	C78.837852,13.721200 80.834259,13.553730 83.223801,10.324117 
	C83.991501,9.286513 85.108032,8.507001 86.634880,7.074850 
	C86.860291,9.861515 86.338394,12.508943 87.391136,14.140131 
	C88.732452,16.218487 91.770203,14.419261 94.925446,15.579598 
	C90.322784,18.932116 88.670769,25.128298 81.910728,24.994326 
	C80.349274,24.963377 79.538857,25.985064 78.606224,26.917645 
	C71.419258,34.104221 64.225693,41.284206 57.045574,48.477608 
	C56.126026,49.398853 54.966202,50.161377 55.001404,51.730907 
	C55.081741,55.312504 52.519943,55.003761 50.143333,54.993389 
	C48.120277,54.984562 47.009426,54.071705 47.020828,51.992805 
	C47.033421,49.697884 46.510105,47.279037 50.126011,46.926010 
	C53.596737,46.587162 55.026680,43.214622 57.247433,41.095680 
	C59.084053,39.343258 56.777275,38.895092 55.848957,38.472084 
	C51.989269,36.713337 45.564381,38.433296 42.064926,41.329090 
	C37.159657,45.388199 37.240925,50.606792 38.519047,55.825314 
	C39.643326,60.415722 45.425556,63.970032 50.333412,64.015617 
	C59.227222,64.098206 63.988853,59.306820 64.015495,50.268852 
	C64.023598,47.520023 63.345825,43.403667 66.944061,43.545517 
	C69.798592,43.658054 68.763977,47.814877 69.010216,50.322063 
	C69.979568,60.191597 63.824776,66.529701 56.570847,68.708786 
	C48.229420,71.214561 39.449516,67.933357 35.100498,60.506588 
	C31.639305,54.595947 31.833893,48.012405 34.697479,42.061291 
	C37.583908,36.062698 42.812485,32.774609 49.828133,32.981056 
	C53.284134,33.082752 56.670212,32.793072 59.862774,34.886707 
	C64.030495,37.619831 65.380371,33.050140 67.076134,31.107168 
	C69.291664,28.568632 65.484238,27.933914 64.403526,27.343784 
	C54.995808,22.206650 45.358280,22.250792 36.319164,28.024670 
	C28.376944,33.097893 24.414669,40.471493 23.817627,50.273842 
	C23.086998,62.269428 32.423424,74.300323 43.519169,77.258255 
	C63.301285,82.531815 78.752586,66.095009 78.084068,52.085735 
	C77.853302,47.250011 77.835846,42.539845 75.082382,38.316254 
	C73.960983,36.596107 73.776733,34.939709 75.838768,33.712627 
	C78.348228,32.219284 79.258087,34.478043 79.866188,35.884266 
	C84.482063,46.558357 84.724052,57.141285 78.936165,67.588036 
	C70.419151,82.960648 52.077579,86.175529 37.683208,80.808083 
	C27.042934,76.840485 19.188137,65.025398 18.942316,53.562820 
	C18.760468,45.083252 20.186249,37.439121 25.661337,30.463989 
	C30.778769,23.944504 37.386414,20.248657 45.085354,19.195049 
	C53.802628,18.002083 62.711536,18.611359 69.978668,24.627993 
	C73.494949,27.539204 74.166290,23.844923 75.766129,22.619295 
	C77.963348,20.936020 77.047272,19.183897 75.226524,17.709255 
	C70.667915,14.017193 65.321060,11.449011 59.760300,10.489097 
	C36.269894,6.434116 14.537508,19.190435 10.350760,44.000366 
	C6.471275,66.989502 19.286104,84.958427 40.837048,91.052002 
	C41.619389,91.273216 42.361454,91.636894 43.568718,91.959686 
z"/>
</svg>