<svg version="1.1" id="Layer_1" xmlns="http://www.w3.org/2000/svg" xmlns:xlink="http://www.w3.org/1999/xlink" x="0px" y="0px"
	 width="100%" viewBox="0 0 64 64" enable-background="new 0 0 64 64" xml:space="preserve">
<path fill="#000000" opacity="1.000000" stroke="none" 
	d="
M7.000000,65.000000 
	C5.008061,65.000000 3.016122,65.000000 1.018137,65.000000 
	C1.012091,43.760715 1.012091,22.521421 1.012091,1.000000 
	C13.686168,1.000000 26.374426,1.000000 39.532387,1.415513 
	C39.454720,7.428953 44.526993,3.644168 45.984039,5.274905 
	C40.614128,10.596479 35.268307,15.894178 29.527620,21.583191 
	C28.060284,19.965677 26.189518,17.851423 24.261415,15.790821 
	C21.695961,13.049068 19.191208,13.226391 16.608061,15.888800 
	C13.022902,19.583969 9.224512,23.078444 5.755008,26.875919 
	C4.695876,28.035170 4.418792,29.908924 3.783555,31.455460 
	C4.400365,31.881063 5.017176,32.306667 5.633986,32.732269 
	C8.022080,30.388409 10.445794,28.079485 12.788587,25.691185 
	C15.301166,23.129803 17.737637,20.493761 20.551006,17.527998 
	C22.365643,19.560369 23.631395,21.107378 25.030905,22.522066 
	C29.950102,27.494617 31.050940,27.531433 35.852341,22.631290 
	C40.557217,17.829660 45.158909,12.926929 49.876324,7.994933 
	C52.172611,10.883662 49.077873,14.802000 54.000000,16.370436 
	C54.000000,10.845371 54.000000,5.922686 54.000000,1.000000 
	C57.632183,1.000000 61.264362,1.000000 65.000000,1.000000 
	C65.000000,12.687395 65.000000,24.375038 64.533646,36.526424 
	C60.408684,36.991886 56.732468,36.792042 53.101395,37.109146 
	C51.897282,37.214306 50.809273,38.648941 49.668182,39.475750 
	C49.934753,39.892208 50.201324,40.308670 50.467899,40.725128 
	C52.459541,40.949154 54.451187,41.173180 57.909134,41.562141 
	C51.166096,47.990387 45.276985,53.371590 39.712391,59.069702 
	C38.282936,60.533455 37.876442,62.996197 37.000000,65.000000 
	C28.979099,65.000000 20.958199,65.000000 12.170820,64.734589 
	C12.691000,62.999722 14.145385,61.638065 15.189856,60.012951 
	C15.674170,59.259396 15.779709,57.654720 15.293394,57.052193 
	C14.784915,56.422199 12.810262,56.004253 12.424515,56.405350 
	C10.052361,58.871861 6.166790,60.501518 7.000000,65.000000 
M36.939903,38.438301 
	C39.053116,36.325886 41.340096,34.353027 43.199970,32.037155 
	C44.024395,31.010592 43.985207,29.290462 44.338043,27.885170 
	C42.829639,28.191706 40.850853,27.993456 39.890617,28.888250 
	C34.431953,33.974899 29.143379,39.252361 23.975039,44.635883 
	C22.826757,45.831970 22.393864,47.714851 21.631582,49.281509 
	C22.196121,49.745598 22.760662,50.209690 23.325201,50.673779 
	C28.701359,48.052689 32.014645,42.781570 36.939903,38.438301 
z"/>
<path fill="#859F3D" opacity="1.000000" stroke="none" 
	d="
M53.535347,1.000000 
	C54.000000,5.922686 54.000000,10.845371 54.000000,16.370436 
	C49.077873,14.802000 52.172611,10.883662 49.876324,7.994933 
	C45.158909,12.926929 40.557217,17.829660 35.852341,22.631290 
	C31.050940,27.531433 29.950102,27.494617 25.030905,22.522066 
	C23.631395,21.107378 22.365643,19.560369 20.551006,17.527998 
	C17.737637,20.493761 15.301166,23.129803 12.788587,25.691185 
	C10.445794,28.079485 8.022080,30.388409 5.633986,32.732269 
	C5.017176,32.306667 4.400365,31.881063 3.783555,31.455460 
	C4.418792,29.908924 4.695876,28.035170 5.755008,26.875919 
	C9.224512,23.078444 13.022902,19.583969 16.608061,15.888800 
	C19.191208,13.226391 21.695961,13.049068 24.261415,15.790821 
	C26.189518,17.851423 28.060284,19.965677 29.527620,21.583191 
	C35.268307,15.894178 40.614128,10.596479 45.984039,5.274905 
	C44.526993,3.644168 39.454720,7.428953 40.001045,1.415513 
	C44.356899,1.000000 48.713799,1.000000 53.535347,1.000000 
z"/>
<path fill="#849B35" opacity="1.000000" stroke="none" 
	d="
M37.416664,65.000000 
	C37.876442,62.996197 38.282936,60.533455 39.712391,59.069702 
	C45.276985,53.371590 51.166096,47.990387 57.909134,41.562141 
	C54.451187,41.173180 52.459541,40.949154 50.467899,40.725128 
	C50.201324,40.308670 49.934753,39.892208 49.668182,39.475750 
	C50.809273,38.648941 51.897282,37.214306 53.101395,37.109146 
	C56.732468,36.792042 60.408684,36.991886 64.533646,36.995083 
	C65.000000,41.689255 65.000000,46.378513 64.583008,51.537849 
	C58.576664,52.484325 62.301353,47.506844 60.867931,46.119354 
	C54.399166,52.189808 47.925003,58.264618 41.475761,64.365776 
	C41.462437,64.378380 41.817177,64.780060 42.000000,65.000000 
	C40.611111,65.000000 39.222221,65.000000 37.416664,65.000000 
z"/>
<path fill="#000000" opacity="1.000000" stroke="none" 
	d="
M42.468735,65.000000 
	C41.817177,64.780060 41.462437,64.378380 41.475761,64.365776 
	C47.925003,58.264618 54.399166,52.189808 60.867931,46.119354 
	C62.301353,47.506844 58.576664,52.484325 64.583008,52.003967 
	C65.000000,56.279934 65.000000,60.559864 65.000000,65.000000 
	C57.646397,65.000000 50.291935,65.000000 42.468735,65.000000 
z"/>
<path fill="#849932" opacity="1.000000" stroke="none" 
	d="
M7.416667,65.000000 
	C6.166790,60.501518 10.052361,58.871861 12.424515,56.405350 
	C12.810262,56.004253 14.784915,56.422199 15.293394,57.052193 
	C15.779709,57.654720 15.674170,59.259396 15.189856,60.012951 
	C14.145385,61.638065 12.691000,62.999722 11.702171,64.734589 
	C10.611111,65.000000 9.222222,65.000000 7.416667,65.000000 
z"/>
<path fill="#849931" opacity="1.000000" stroke="none" 
	d="
M36.689808,38.688492 
	C32.014645,42.781570 28.701359,48.052689 23.325201,50.673779 
	C22.760662,50.209690 22.196121,49.745598 21.631582,49.281509 
	C22.393864,47.714851 22.826757,45.831970 23.975039,44.635883 
	C29.143379,39.252361 34.431953,33.974899 39.890617,28.888250 
	C40.850853,27.993456 42.829639,28.191706 44.338043,27.885170 
	C43.985207,29.290462 44.024395,31.010592 43.199970,32.037155 
	C41.340096,34.353027 39.053116,36.325886 36.689808,38.688492 
z"/>
</svg>