<svg version="1.1" id="Layer_1" xmlns="http://www.w3.org/2000/svg" xmlns:xlink="http://www.w3.org/1999/xlink" x="0px" y="0px"
	 width="100%" viewBox="0 0 100 100" enable-background="new 0 0 100 100" xml:space="preserve">
<path fill="#000000" opacity="1.000000" stroke="none" 
	d="
M59.000000,101.000000 
	C39.333336,101.000000 20.166674,101.000000 1.000008,101.000000 
	C1.000005,67.666679 1.000005,34.333351 1.000003,1.000021 
	C34.333317,1.000014 67.666634,1.000014 100.999969,1.000007 
	C100.999977,34.333313 100.999977,67.666626 100.999985,100.999969 
	C87.166664,101.000000 73.333336,101.000000 59.000000,101.000000 
M62.997643,90.062790 
	C62.087078,82.308090 63.709576,75.509323 69.579941,69.823769 
	C76.259689,63.354305 79.466454,55.490078 79.113930,45.899895 
	C78.672661,33.895630 73.263680,25.245743 62.377663,21.007133 
	C51.547382,16.790230 40.862465,17.691389 31.566837,25.894247 
	C19.632980,36.425190 20.060953,57.093014 31.361523,68.986511 
	C34.994385,72.809982 39.840023,76.595078 38.877373,82.694946 
	C37.741222,89.894188 39.087982,94.592384 47.017170,96.589958 
	C51.894299,97.818657 61.165955,95.273987 62.997643,90.062790 
M20.477793,15.039305 
	C20.385662,16.593452 19.646338,18.569290 20.329727,19.618137 
	C21.996555,22.176329 24.322403,24.305126 26.620565,26.872295 
	C28.274269,25.040234 29.203175,24.011143 30.574686,22.491707 
	C27.258745,19.836618 24.252914,17.429838 20.477793,15.039305 
M72.509811,23.954840 
	C73.419189,24.589289 74.359810,25.796194 75.231964,25.748596 
	C77.645447,25.616888 82.713631,18.111105 82.483147,14.936749 
	C77.063873,15.451953 74.746590,19.598593 72.509811,23.954840 
M73.099899,72.397110 
	C76.076317,74.730453 77.498283,79.472473 82.581337,78.814575 
	C82.728645,75.125244 78.218735,69.058777 75.297752,69.152969 
	C74.485283,69.179169 73.724380,70.804398 73.099899,72.397110 
M20.359507,74.118362 
	C19.833870,75.514862 19.308233,76.911354 18.710762,78.498703 
	C24.217285,78.825867 28.874046,74.121040 28.350740,67.585907 
	C25.358521,70.008278 23.140636,71.803780 20.359507,74.118362 
M17.114239,45.031120 
	C14.296019,45.032829 11.452344,44.826305 8.675407,45.165749 
	C7.864028,45.264935 7.242710,46.918964 6.534276,47.860321 
	C10.618568,47.973679 14.702860,48.087032 18.787149,48.200390 
	C18.529692,47.182438 18.272234,46.164486 17.114239,45.031120 
M83.342339,48.717937 
	C87.107407,48.717937 90.872482,48.717937 94.874405,48.717937 
	C94.790649,47.474995 94.700287,45.706047 94.667435,45.707119 
	C90.564430,45.840431 86.465660,46.104130 82.366684,46.361214 
	C82.488144,46.943417 82.609604,47.525623 83.342339,48.717937 
M49.804203,2.830651 
	C47.554493,10.824224 48.658424,15.069953 52.999851,14.114761 
	C52.999851,11.715893 53.307552,9.207451 52.891891,6.825224 
	C52.613869,5.231833 51.307816,3.817816 49.804203,2.830651 
z"/>
<path fill="#859F3D" opacity="1.000000" stroke="none" 
	d="
M62.992851,90.506271 
	C61.165955,95.273987 51.894299,97.818657 47.017170,96.589958 
	C39.087982,94.592384 37.741222,89.894188 38.877373,82.694946 
	C39.840023,76.595078 34.994385,72.809982 31.361523,68.986511 
	C20.060953,57.093014 19.632980,36.425190 31.566837,25.894247 
	C40.862465,17.691389 51.547382,16.790230 62.377663,21.007133 
	C73.263680,25.245743 78.672661,33.895630 79.113930,45.899895 
	C79.466454,55.490078 76.259689,63.354305 69.579941,69.823769 
	C63.709576,75.509323 62.087078,82.308090 62.992851,90.506271 
M73.998978,47.495922 
	C73.924431,45.505634 74.287170,43.376511 73.706322,41.546970 
	C68.963799,26.609121 57.564018,21.025122 44.768490,24.522747 
	C31.115805,28.254673 24.795570,40.249916 29.108301,54.387863 
	C30.827044,60.022236 36.627590,64.302383 39.029400,69.864281 
	C42.239609,77.298180 47.753448,77.523094 54.150616,77.008919 
	C55.143784,76.929092 56.177753,77.123642 57.136051,76.921707 
	C57.824669,76.776611 58.585663,76.316963 59.027847,75.767181 
	C61.902115,72.193512 64.780075,68.617256 67.499161,64.925720 
	C71.116753,60.014339 74.666588,55.026863 73.998978,47.495922 
M48.179226,85.059486 
	C51.625824,85.059486 55.072422,85.059486 58.495525,85.059486 
	C58.621532,80.719513 52.777973,79.621086 43.013096,81.695259 
	C43.720058,84.409355 44.423904,87.111488 45.225365,90.188370 
	C48.939850,90.188370 53.165104,90.188370 57.390362,90.188370 
	C57.378494,89.787102 57.366627,89.385826 57.354759,88.984558 
	C54.554829,88.984558 51.742004,89.150528 48.958858,88.934364 
	C46.540619,88.746544 44.891003,87.808060 48.179226,85.059486 
z"/>
<path fill="#859E3D" opacity="1.000000" stroke="none" 
	d="
M20.862438,15.031180 
	C24.252914,17.429838 27.258745,19.836618 30.574686,22.491707 
	C29.203175,24.011143 28.274269,25.040234 26.620565,26.872295 
	C24.322403,24.305126 21.996555,22.176329 20.329727,19.618137 
	C19.646338,18.569290 20.385662,16.593452 20.862438,15.031180 
z"/>
<path fill="#859F3D" opacity="1.000000" stroke="none" 
	d="
M72.319954,23.654715 
	C74.746590,19.598593 77.063873,15.451953 82.483147,14.936749 
	C82.713631,18.111105 77.645447,25.616888 75.231964,25.748596 
	C74.359810,25.796194 73.419189,24.589289 72.319954,23.654715 
z"/>
<path fill="#859F3D" opacity="1.000000" stroke="none" 
	d="
M73.019859,72.046570 
	C73.724380,70.804398 74.485283,69.179169 75.297752,69.152969 
	C78.218735,69.058777 82.728645,75.125244 82.581337,78.814575 
	C77.498283,79.472473 76.076317,74.730453 73.019859,72.046570 
z"/>
<path fill="#859F3D" opacity="1.000000" stroke="none" 
	d="
M20.641129,73.858826 
	C23.140636,71.803780 25.358521,70.008278 28.350740,67.585907 
	C28.874046,74.121040 24.217285,78.825867 18.710762,78.498703 
	C19.308233,76.911354 19.833870,75.514862 20.641129,73.858826 
z"/>
<path fill="#859F3D" opacity="1.000000" stroke="none" 
	d="
M17.564507,45.088829 
	C18.272234,46.164486 18.529692,47.182438 18.787151,48.200390 
	C14.702860,48.087032 10.618568,47.973679 6.534276,47.860321 
	C7.242710,46.918964 7.864028,45.264935 8.675407,45.165749 
	C11.452344,44.826305 14.296019,45.032829 17.564507,45.088829 
z"/>
<path fill="#859F3D" opacity="1.000000" stroke="none" 
	d="
M83.036697,48.412884 
	C82.609604,47.525623 82.488144,46.943417 82.366684,46.361214 
	C86.465660,46.104130 90.564430,45.840431 94.667435,45.707119 
	C94.700287,45.706047 94.790649,47.474995 94.874405,48.717937 
	C90.872482,48.717937 87.107407,48.717937 83.036697,48.412884 
z"/>
<path fill="#859F3D" opacity="1.000000" stroke="none" 
	d="
M50.132999,2.577091 
	C51.307816,3.817816 52.613869,5.231833 52.891891,6.825224 
	C53.307552,9.207451 52.999851,11.715893 52.999851,14.114761 
	C48.658424,15.069953 47.554493,10.824224 50.132999,2.577091 
z"/>
<path fill="#000000" opacity="1.000000" stroke="none" 
	d="
M73.999268,47.951881 
	C74.666588,55.026863 71.116753,60.014339 67.499161,64.925720 
	C64.780075,68.617256 61.902115,72.193512 59.027847,75.767181 
	C58.585663,76.316963 57.824669,76.776611 57.136051,76.921707 
	C56.177753,77.123642 55.143784,76.929092 54.150616,77.008919 
	C47.753448,77.523094 42.239609,77.298180 39.029400,69.864281 
	C36.627590,64.302383 30.827044,60.022236 29.108301,54.387863 
	C24.795570,40.249916 31.115805,28.254673 44.768490,24.522747 
	C57.564018,21.025122 68.963799,26.609121 73.706322,41.546970 
	C74.287170,43.376511 73.924431,45.505634 73.999268,47.951881 
z"/>
<path fill="#000000" opacity="1.000000" stroke="none" 
	d="
M47.763611,85.167313 
	C44.891003,87.808060 46.540619,88.746544 48.958858,88.934364 
	C51.742004,89.150528 54.554829,88.984558 57.354759,88.984558 
	C57.366627,89.385826 57.378494,89.787102 57.390362,90.188370 
	C53.165104,90.188370 48.939850,90.188370 45.225365,90.188370 
	C44.423904,87.111488 43.720058,84.409355 43.013096,81.695259 
	C52.777973,79.621086 58.621532,80.719513 58.495525,85.059486 
	C55.072422,85.059486 51.625824,85.059486 47.763611,85.167313 
z"/>
</svg>