<?xml version="1.0" encoding="UTF-8"?>
<svg id="Capa_1" xmlns="http://www.w3.org/2000/svg" xmlns:xlink="http://www.w3.org/1999/xlink" viewBox="0 0 451.41 439.5">
  <defs>
    <style>
      .cls-1 {
        fill: url(#Degradado_sin_nombre_24);
      }

      .cls-2 {
        fill: url(#Degradado_sin_nombre_23);
      }
    </style>
    <linearGradient id="Degradado_sin_nombre_23" data-name="Degradado sin nombre 23" x1="62.71" y1="-57.81" x2="481.91" y2="355.32" gradientUnits="userSpaceOnUse">
      <stop offset="0" stop-color="#f5f7e0"/>
      <stop offset="1" stop-color="#315123"/>
    </linearGradient>
    <linearGradient id="Degradado_sin_nombre_24" data-name="Degradado sin nombre 24" x1="-54.33" y1="60.95" x2="364.86" y2="474.08" gradientUnits="userSpaceOnUse">
      <stop offset="0" stop-color="#fff"/>
      <stop offset="1" stop-color="#315123"/>
    </linearGradient>
  </defs>
  <path class="cls-2" d="M404.73,78.27c-.04,18.31-1.99,35.3-3.27,52.35-1.02,13.66-2.26,27.33-1.46,41.06.83,14.34,7.74,22.8,20.34,25.47,3.71.79,7.44,1.06,11.2,1.22,8.02.34,14.32,4.12,17.86,12.3,3.22,7.42,2.55,14.77-1.78,21.48-4.17,6.46-10.16,8.88-17.11,9.04-6.25.14-12.38.99-18.11,4.13-7.73,4.23-11.31,11.48-12.14,20.6-.97,10.69-.12,21.38.5,32.06,1.31,22.93,4.42,45.73,3.99,68.78-.31,16.63-3.11,32.47-12.12,46.23-8.35,12.76-20.06,19.7-33.56,23.39-10.35,2.83-20.89,3.38-31.47,2.99-10.01-.37-17.51-8.99-17.37-19.6.13-10.23,7.62-18.2,17.42-18.69,6.69-.33,13.32-1.16,19.76-3.42,8.72-3.06,14-9.74,16.38-19.31,3.36-13.54,2.88-27.4,2.53-41.25-.61-24.29-4.5-48.34-4.28-72.69.12-13.06,2.18-25.48,10.45-35.62,2.47-3.03,5.39-5.43,8.43-7.66,1.08-.79,2.18-1.32.28-2.6-14.88-10.01-19.05-25.82-19.2-43.87-.17-19.26,2.59-38.27,3.57-57.43.84-16.41,2.16-32.87-.4-49.24-2.89-18.48-10.6-26.45-27.38-28.61-3.49-.45-7.01-.79-10.52-.99-9.13-.51-16.49-8.2-17.03-17.94-.54-9.74,5.91-19.29,14.91-20.01,17.5-1.42,34.79.15,50.62,9.77,16.93,10.29,24.91,27.22,27.9,47.72,1.04,7.13,1.13,14.31,1.06,20.33Z"/>
  <path class="cls-1" d="M46.73,347.34c1.22-20.72,3.68-41.33,4.47-62.09.23-6.12.47-12.26-.06-18.39-1.18-13.67-7.94-21.9-20.08-24.49-3.94-.84-7.9-1.11-11.9-1.25-8.68-.32-15.75-6.24-18.26-15.06-2.43-8.55.19-17.59,6.82-23.4,3.46-3.03,7.5-4.25,11.82-4.31,3.89-.05,7.73-.44,11.55-1.26,12.05-2.58,19.03-10.94,19.96-24.59.9-13.2-.23-26.37-1.24-39.51-1.51-19.64-3.7-39.24-3.52-59,.14-15.07,2.33-29.67,9.42-42.85C65.03,13.85,79.61,5.61,96.78,1.99,105.71.11,114.75-.24,123.8.14c9.72.41,17.23,9.09,17.15,19.49-.08,10.13-7.71,18.3-17.41,18.78-7.29.36-14.53,1.16-21.43,4.05-6.77,2.84-11.35,8.14-13.88,15.63-2.25,6.67-3.11,13.66-3.39,20.73-.86,22.52,1.07,44.89,2.93,67.27,1.23,14.82,2.54,29.66-.18,44.48-2.18,11.9-7.86,21.06-17.08,27.54-1.13.8-2.93,1.37-.45,3.02,13.84,9.26,18.43,23.89,18.98,40.83.43,13.49-.9,26.88-1.99,40.28-1.77,21.99-3.57,43.98-1.58,66.09.43,4.83,1.47,9.52,3.1,14.02,3.65,10.13,11.05,14.81,20.15,16.85,5.07,1.13,10.2,1.7,15.37,1.96,9.26.47,16.65,8.6,16.93,18.49.27,9.6-6.55,18.87-15.56,19.51-15.32,1.1-30.51-.16-44.88-7.04-17.79-8.52-27.81-23.93-32.05-44.6-2.73-13.3-2.01-26.74-1.78-40.17Z"/>
</svg>